<svg width="200" height="293" viewBox="0 0 200 293" fill="none" xmlns="http://www.w3.org/2000/svg">
<path fill-rule="evenodd" clip-rule="evenodd" d="M81.7361 0H104.523V46.5225C107.46 46.3288 110.432 46.232 113.438 46.232C114.448 46.232 115.455 46.2427 116.458 46.264V0H139.245V48.6936C146.791 50.1779 154.126 52.3333 161.25 55.16C176.458 60.92 189.375 68.984 200 79.352L184.062 94.904C175.521 86.072 164.896 79.16 152.188 74.168C147.922 72.4644 143.608 71.0516 139.245 69.9294V230.783C143.849 229.675 148.372 228.254 152.813 226.52C165.104 221.528 175.417 214.712 183.75 206.072L199.375 221.048C188.542 231.416 175.625 239.576 160.625 245.528C153.656 248.204 146.529 250.259 139.245 251.692V293H116.458V254.135C115.454 254.157 114.447 254.168 113.438 254.168C110.432 254.168 107.46 254.071 104.523 253.877V293H81.7361V250.261C77.3208 249.123 72.9921 247.738 68.75 246.104C55 240.728 43.0208 233.432 32.8125 224.216C22.6042 214.808 14.5833 203.768 8.74999 191.096C2.91669 178.232 0 164.6 0 150.2C0 135.8 2.91669 122.264 8.74999 109.592C14.5833 96.728 22.6042 85.688 32.8125 76.472C43.0208 67.064 55 59.672 68.75 54.296C72.9921 52.6622 77.3208 51.2766 81.7361 50.1393V0ZM116.458 233.695V66.7229C115.454 66.6943 114.447 66.68 113.438 66.68C110.423 66.68 107.452 66.8084 104.523 67.0651V233.31C107.649 233.583 110.829 233.72 114.063 233.72C114.863 233.72 115.662 233.712 116.458 233.695ZM78.125 73.304C79.3202 72.826 80.5239 72.3739 81.7361 71.9476V228.575C80.6284 228.198 79.5289 227.802 78.4375 227.384C67.6042 222.968 58.125 217.112 50 209.816C42.0833 202.328 35.8333 193.496 31.25 183.32C26.6667 172.952 24.375 161.912 24.375 150.2C24.375 138.488 26.6667 127.544 31.25 117.368C35.8333 107 42.0833 98.168 50 90.872C57.9167 83.384 67.2917 77.528 78.125 73.304Z" fill="#128000"/>
</svg>
